<svg width="130" height="32" viewBox="0 0 130 32" fill="none" xmlns="http://www.w3.org/2000/svg">
<mask id="mask0_1_9165" style="mask-type:alpha" maskUnits="userSpaceOnUse" x="0" y="0" width="32" height="32">
<circle cx="16" cy="16" r="16" fill="url(#paint0_linear_1_9165)"/>
</mask>
<g mask="url(#mask0_1_9165)">
<circle cx="16" cy="16" r="16" fill="url(#paint1_linear_1_9165)"/>
<path d="M21.088 20.44V2.656C21.088 2.384 21.096 2.088 21.112 1.768C21.144 1.448 21.176 1.12 21.208 0.783998L6.52 20.44H21.088ZM34.6841 20.44V21.688C34.6841 21.864 34.6281 22.008 34.5161 22.12C34.4201 22.216 34.2601 22.264 34.0361 22.264H23.104V32.008H21.088V22.264H5.032C4.792 22.264 4.608 22.216 4.48 22.12C4.352 22.008 4.264 21.864 4.216 21.688L4 20.56L21.064 -2H23.104V20.44H34.6841Z" fill="white"/>
</g>
<path d="M47.448 13.036C47.384 13.148 47.3147 13.2307 47.24 13.284C47.1707 13.332 47.0827 13.356 46.976 13.356C46.864 13.356 46.7413 13.316 46.608 13.236C46.48 13.1507 46.3253 13.0573 46.144 12.956C45.9627 12.8547 45.7493 12.764 45.504 12.684C45.264 12.5987 44.9787 12.556 44.648 12.556C44.3493 12.556 44.088 12.5933 43.864 12.668C43.64 12.7373 43.4507 12.836 43.296 12.964C43.1467 13.092 43.0347 13.2467 42.96 13.428C42.8853 13.604 42.848 13.7987 42.848 14.012C42.848 14.284 42.9227 14.5107 43.072 14.692C43.2267 14.8733 43.4293 15.028 43.68 15.156C43.9307 15.284 44.216 15.3987 44.536 15.5C44.856 15.6013 45.184 15.7107 45.52 15.828C45.856 15.94 46.184 16.0733 46.504 16.228C46.824 16.3773 47.1093 16.5693 47.36 16.804C47.6107 17.0333 47.8107 17.316 47.96 17.652C48.1147 17.988 48.192 18.396 48.192 18.876C48.192 19.3987 48.1013 19.8893 47.92 20.348C47.744 20.8013 47.4827 21.1987 47.136 21.54C46.7947 21.876 46.376 22.1427 45.88 22.34C45.384 22.532 44.816 22.628 44.176 22.628C43.808 22.628 43.4453 22.5907 43.088 22.516C42.7307 22.4467 42.3867 22.3453 42.056 22.212C41.7307 22.0787 41.424 21.9187 41.136 21.732C40.848 21.5453 40.592 21.3373 40.368 21.108L41 20.076C41.0533 20.0013 41.1227 19.94 41.208 19.892C41.2933 19.8387 41.384 19.812 41.48 19.812C41.6133 19.812 41.7573 19.868 41.912 19.98C42.0667 20.0867 42.2507 20.2067 42.464 20.34C42.6773 20.4733 42.9253 20.596 43.208 20.708C43.496 20.8147 43.84 20.868 44.24 20.868C44.8533 20.868 45.328 20.724 45.664 20.436C46 20.1427 46.168 19.724 46.168 19.18C46.168 18.876 46.0907 18.628 45.936 18.436C45.7867 18.244 45.5867 18.084 45.336 17.956C45.0853 17.8227 44.8 17.7107 44.48 17.62C44.16 17.5293 43.8347 17.4307 43.504 17.324C43.1733 17.2173 42.848 17.0893 42.528 16.94C42.208 16.7907 41.9227 16.596 41.672 16.356C41.4213 16.116 41.2187 15.8173 41.064 15.46C40.9147 15.0973 40.84 14.652 40.84 14.124C40.84 13.7027 40.9227 13.292 41.088 12.892C41.2587 12.492 41.504 12.1373 41.824 11.828C42.144 11.5187 42.5387 11.2707 43.008 11.084C43.4773 10.8973 44.016 10.804 44.624 10.804C45.3067 10.804 45.936 10.9107 46.512 11.124C47.088 11.3373 47.5787 11.636 47.984 12.02L47.448 13.036ZM52.1339 22.628C51.4192 22.628 50.8699 22.428 50.4859 22.028C50.1072 21.6227 49.9179 21.0653 49.9179 20.356V15.772H49.0779C48.9712 15.772 48.8805 15.7373 48.8059 15.668C48.7312 15.5987 48.6939 15.4947 48.6939 15.356V14.572L50.0139 14.356L50.4299 12.116C50.4565 12.0093 50.5072 11.9267 50.5819 11.868C50.6565 11.8093 50.7525 11.78 50.8699 11.78H51.8939V14.364H54.0859V15.772H51.8939V20.22C51.8939 20.476 51.9552 20.676 52.0779 20.82C52.2059 20.964 52.3792 21.036 52.5979 21.036C52.7205 21.036 52.8219 21.0227 52.9019 20.996C52.9872 20.964 53.0592 20.932 53.1179 20.9C53.1819 20.868 53.2379 20.8387 53.2859 20.812C53.3339 20.78 53.3819 20.764 53.4299 20.764C53.4885 20.764 53.5365 20.78 53.5739 20.812C53.6112 20.8387 53.6512 20.8813 53.6939 20.94L54.2859 21.9C53.9979 22.14 53.6672 22.3213 53.2939 22.444C52.9205 22.5667 52.5339 22.628 52.1339 22.628ZM59.687 18.996C59.1163 19.0227 58.6363 19.0733 58.247 19.148C57.8577 19.2173 57.5457 19.308 57.311 19.42C57.0763 19.532 56.9083 19.6627 56.807 19.812C56.7057 19.9613 56.655 20.124 56.655 20.3C56.655 20.6467 56.7563 20.8947 56.959 21.044C57.167 21.1933 57.4363 21.268 57.767 21.268C58.1723 21.268 58.5217 21.196 58.815 21.052C59.1137 20.9027 59.4043 20.6787 59.687 20.38V18.996ZM55.159 15.436C56.103 14.572 57.239 14.14 58.567 14.14C59.047 14.14 59.4763 14.22 59.855 14.38C60.2337 14.5347 60.5537 14.7533 60.815 15.036C61.0763 15.3133 61.2737 15.6467 61.407 16.036C61.5457 16.4253 61.615 16.852 61.615 17.316V22.5H60.719C60.5323 22.5 60.3883 22.4733 60.287 22.42C60.1857 22.3613 60.1057 22.2467 60.047 22.076L59.871 21.484C59.663 21.6707 59.4603 21.836 59.263 21.98C59.0657 22.1187 58.8603 22.236 58.647 22.332C58.4337 22.428 58.2043 22.5 57.959 22.548C57.719 22.6013 57.4523 22.628 57.159 22.628C56.8123 22.628 56.4923 22.5827 56.199 22.492C55.9057 22.396 55.6523 22.2547 55.439 22.068C55.2257 21.8813 55.0603 21.6493 54.943 21.372C54.8257 21.0947 54.767 20.772 54.767 20.404C54.767 20.196 54.8017 19.9907 54.871 19.788C54.9403 19.58 55.0523 19.3827 55.207 19.196C55.367 19.0093 55.5723 18.8333 55.823 18.668C56.0737 18.5027 56.3803 18.3587 56.743 18.236C57.111 18.1133 57.5377 18.0147 58.023 17.94C58.5083 17.86 59.063 17.812 59.687 17.796V17.316C59.687 16.7667 59.5697 16.3613 59.335 16.1C59.1003 15.8333 58.7617 15.7 58.319 15.7C57.999 15.7 57.7323 15.7373 57.519 15.812C57.311 15.8867 57.127 15.972 56.967 16.068C56.807 16.1587 56.6603 16.2413 56.527 16.316C56.399 16.3907 56.255 16.428 56.095 16.428C55.9563 16.428 55.839 16.3933 55.743 16.324C55.647 16.2493 55.5697 16.164 55.511 16.068L55.159 15.436ZM66.1026 22.628C65.388 22.628 64.8386 22.428 64.4546 22.028C64.076 21.6227 63.8866 21.0653 63.8866 20.356V15.772H63.0466C62.94 15.772 62.8493 15.7373 62.7746 15.668C62.7 15.5987 62.6626 15.4947 62.6626 15.356V14.572L63.9826 14.356L64.3986 12.116C64.4253 12.0093 64.476 11.9267 64.5506 11.868C64.6253 11.8093 64.7213 11.78 64.8386 11.78H65.8626V14.364H68.0546V15.772H65.8626V20.22C65.8626 20.476 65.924 20.676 66.0466 20.82C66.1746 20.964 66.348 21.036 66.5666 21.036C66.6893 21.036 66.7906 21.0227 66.8706 20.996C66.956 20.964 67.028 20.932 67.0866 20.9C67.1506 20.868 67.2066 20.8387 67.2546 20.812C67.3026 20.78 67.3506 20.764 67.3986 20.764C67.4573 20.764 67.5053 20.78 67.5426 20.812C67.58 20.8387 67.62 20.8813 67.6626 20.94L68.2546 21.9C67.9666 22.14 67.636 22.3213 67.2626 22.444C66.8893 22.5667 66.5026 22.628 66.1026 22.628ZM91.457 10.932V22.5H89.561V15.028C89.561 14.7293 89.577 14.4067 89.609 14.06L86.113 20.628C85.9477 20.9427 85.6943 21.1 85.353 21.1H85.049C84.7077 21.1 84.4543 20.9427 84.289 20.628L80.753 14.036C80.769 14.212 80.7823 14.3853 80.793 14.556C80.8037 14.7267 80.809 14.884 80.809 15.028V22.5H78.913V10.932H80.537C80.633 10.932 80.7157 10.9347 80.785 10.94C80.8543 10.9453 80.9157 10.9587 80.969 10.98C81.0277 11.0013 81.0783 11.036 81.121 11.084C81.169 11.132 81.2143 11.196 81.257 11.276L84.721 17.7C84.8117 17.8707 84.8943 18.0467 84.969 18.228C85.049 18.4093 85.1263 18.596 85.201 18.788C85.2757 18.5907 85.353 18.4013 85.433 18.22C85.513 18.0333 85.5983 17.8547 85.689 17.684L89.105 11.276C89.1477 11.196 89.193 11.132 89.241 11.084C89.289 11.036 89.3397 11.0013 89.393 10.98C89.4517 10.9587 89.5157 10.9453 89.585 10.94C89.6543 10.9347 89.737 10.932 89.833 10.932H91.457ZM97.8589 18.996C97.2882 19.0227 96.8082 19.0733 96.4189 19.148C96.0295 19.2173 95.7175 19.308 95.4829 19.42C95.2482 19.532 95.0802 19.6627 94.9789 19.812C94.8775 19.9613 94.8269 20.124 94.8269 20.3C94.8269 20.6467 94.9282 20.8947 95.1309 21.044C95.3389 21.1933 95.6082 21.268 95.9389 21.268C96.3442 21.268 96.6935 21.196 96.9869 21.052C97.2855 20.9027 97.5762 20.6787 97.8589 20.38V18.996ZM93.3309 15.436C94.2749 14.572 95.4109 14.14 96.7389 14.14C97.2189 14.14 97.6482 14.22 98.0269 14.38C98.4055 14.5347 98.7255 14.7533 98.9869 15.036C99.2482 15.3133 99.4455 15.6467 99.5789 16.036C99.7175 16.4253 99.7869 16.852 99.7869 17.316V22.5H98.8909C98.7042 22.5 98.5602 22.4733 98.4589 22.42C98.3575 22.3613 98.2775 22.2467 98.2189 22.076L98.0429 21.484C97.8349 21.6707 97.6322 21.836 97.4349 21.98C97.2375 22.1187 97.0322 22.236 96.8189 22.332C96.6055 22.428 96.3762 22.5 96.1309 22.548C95.8909 22.6013 95.6242 22.628 95.3309 22.628C94.9842 22.628 94.6642 22.5827 94.3709 22.492C94.0775 22.396 93.8242 22.2547 93.6109 22.068C93.3975 21.8813 93.2322 21.6493 93.1149 21.372C92.9975 21.0947 92.9389 20.772 92.9389 20.404C92.9389 20.196 92.9735 19.9907 93.0429 19.788C93.1122 19.58 93.2242 19.3827 93.3789 19.196C93.5389 19.0093 93.7442 18.8333 93.9949 18.668C94.2455 18.5027 94.5522 18.3587 94.9149 18.236C95.2829 18.1133 95.7095 18.0147 96.1949 17.94C96.6802 17.86 97.2349 17.812 97.8589 17.796V17.316C97.8589 16.7667 97.7415 16.3613 97.5069 16.1C97.2722 15.8333 96.9335 15.7 96.4909 15.7C96.1709 15.7 95.9042 15.7373 95.6909 15.812C95.4829 15.8867 95.2989 15.972 95.1389 16.068C94.9789 16.1587 94.8322 16.2413 94.6989 16.316C94.5709 16.3907 94.4269 16.428 94.2669 16.428C94.1282 16.428 94.0109 16.3933 93.9149 16.324C93.8189 16.2493 93.7415 16.164 93.6829 16.068L93.3309 15.436ZM103.512 15.716C103.768 15.2253 104.072 14.8413 104.424 14.564C104.776 14.2813 105.192 14.14 105.672 14.14C106.051 14.14 106.355 14.2227 106.584 14.388L106.456 15.868C106.429 15.964 106.389 16.0333 106.336 16.076C106.288 16.1133 106.221 16.132 106.136 16.132C106.056 16.132 105.936 16.1187 105.776 16.092C105.621 16.0653 105.469 16.052 105.32 16.052C105.101 16.052 104.907 16.084 104.736 16.148C104.565 16.212 104.411 16.3053 104.272 16.428C104.139 16.5453 104.019 16.6893 103.912 16.86C103.811 17.0307 103.715 17.2253 103.624 17.444V22.5H101.648V14.292H102.808C103.011 14.292 103.152 14.3293 103.232 14.404C103.312 14.4733 103.365 14.6013 103.392 14.788L103.512 15.716ZM109.593 10.612V17.42H109.961C110.094 17.42 110.198 17.404 110.273 17.372C110.353 17.3347 110.433 17.2627 110.513 17.156L112.553 14.636C112.638 14.524 112.731 14.4387 112.833 14.38C112.939 14.3213 113.075 14.292 113.241 14.292H115.049L112.497 17.34C112.315 17.58 112.118 17.764 111.905 17.892C112.017 17.972 112.115 18.0653 112.201 18.172C112.291 18.2787 112.377 18.3933 112.457 18.516L115.193 22.5H113.409C113.254 22.5 113.121 22.476 113.009 22.428C112.897 22.3747 112.803 22.2813 112.729 22.148L110.633 19.036C110.558 18.9133 110.481 18.8333 110.401 18.796C110.321 18.7587 110.201 18.74 110.041 18.74H109.593V22.5H107.617V10.612H109.593ZM121.03 17.452C121.03 17.196 120.992 16.956 120.918 16.732C120.848 16.5027 120.742 16.3027 120.598 16.132C120.454 15.9613 120.27 15.828 120.046 15.732C119.827 15.6307 119.571 15.58 119.278 15.58C118.707 15.58 118.256 15.7427 117.926 16.068C117.6 16.3933 117.392 16.8547 117.302 17.452H121.03ZM117.262 18.644C117.294 19.0653 117.368 19.4307 117.486 19.74C117.603 20.044 117.758 20.2973 117.95 20.5C118.142 20.6973 118.368 20.8467 118.63 20.948C118.896 21.044 119.19 21.092 119.51 21.092C119.83 21.092 120.104 21.0547 120.334 20.98C120.568 20.9053 120.771 20.8227 120.942 20.732C121.118 20.6413 121.27 20.5587 121.398 20.484C121.531 20.4093 121.659 20.372 121.782 20.372C121.947 20.372 122.07 20.4333 122.15 20.556L122.718 21.276C122.499 21.532 122.254 21.748 121.982 21.924C121.71 22.0947 121.424 22.2333 121.126 22.34C120.832 22.4413 120.531 22.5133 120.222 22.556C119.918 22.5987 119.622 22.62 119.334 22.62C118.763 22.62 118.232 22.5267 117.742 22.34C117.251 22.148 116.824 21.868 116.462 21.5C116.099 21.1267 115.814 20.668 115.606 20.124C115.398 19.5747 115.294 18.94 115.294 18.22C115.294 17.66 115.384 17.1347 115.566 16.644C115.747 16.148 116.006 15.7187 116.342 15.356C116.683 14.988 117.096 14.6973 117.582 14.484C118.072 14.2707 118.624 14.164 119.238 14.164C119.755 14.164 120.232 14.2467 120.67 14.412C121.107 14.5773 121.483 14.82 121.798 15.14C122.112 15.4547 122.358 15.844 122.534 16.308C122.715 16.7667 122.806 17.292 122.806 17.884C122.806 18.1827 122.774 18.3853 122.71 18.492C122.646 18.5933 122.523 18.644 122.342 18.644H117.262ZM126.946 22.628C126.232 22.628 125.682 22.428 125.298 22.028C124.92 21.6227 124.73 21.0653 124.73 20.356V15.772H123.89C123.784 15.772 123.693 15.7373 123.618 15.668C123.544 15.5987 123.506 15.4947 123.506 15.356V14.572L124.826 14.356L125.242 12.116C125.269 12.0093 125.32 11.9267 125.394 11.868C125.469 11.8093 125.565 11.78 125.682 11.78H126.706V14.364H128.898V15.772H126.706V20.22C126.706 20.476 126.768 20.676 126.89 20.82C127.018 20.964 127.192 21.036 127.41 21.036C127.533 21.036 127.634 21.0227 127.714 20.996C127.8 20.964 127.872 20.932 127.93 20.9C127.994 20.868 128.05 20.8387 128.098 20.812C128.146 20.78 128.194 20.764 128.242 20.764C128.301 20.764 128.349 20.78 128.386 20.812C128.424 20.8387 128.464 20.8813 128.506 20.94L129.098 21.9C128.81 22.14 128.48 22.3213 128.106 22.444C127.733 22.5667 127.346 22.628 126.946 22.628Z" fill="white"/>
<path d="M74.0398 18.14V14.356C74.0398 13.9987 74.0638 13.604 74.1118 13.172L70.5198 18.14H74.0398ZM77.2158 18.14V19.284C77.2158 19.3907 77.1811 19.484 77.1118 19.564C77.0424 19.6387 76.9438 19.676 76.8158 19.676H75.7598V22.5H74.0398V19.676H69.1598C69.0264 19.676 68.9091 19.636 68.8078 19.556C68.7064 19.4707 68.6424 19.3667 68.6158 19.244L68.4078 18.244L73.8878 10.924H75.7598V18.14H77.2158Z" fill="#EA5DBB"/>
<defs>
<linearGradient id="paint0_linear_1_9165" x1="36.8" y1="-9.6" x2="9.2" y2="32" gradientUnits="userSpaceOnUse">
<stop stop-color="#FF00AA"/>
<stop offset="1" stop-color="#8912DE"/>
</linearGradient>
<linearGradient id="paint1_linear_1_9165" x1="36.8" y1="-9.6" x2="9.2" y2="32" gradientUnits="userSpaceOnUse">
<stop stop-color="#FF00AA"/>
<stop offset="1" stop-color="#8912DE"/>
</linearGradient>
</defs>
</svg>
