<svg width="16" height="16" viewBox="0 0 16 16" fill="none" xmlns="http://www.w3.org/2000/svg">
<path d="M8.19252 5.69518L11.6054 9.10804C11.6633 9.16593 11.7299 9.19477 11.8051 9.19477C11.8804 9.19477 11.947 9.16596 12.0049 9.10804L12.4391 8.67398C12.497 8.6161 12.526 8.54948 12.526 8.47432C12.526 8.39895 12.497 8.33233 12.4391 8.27448L8.39237 4.22741C8.33448 4.16952 8.26787 4.14063 8.19261 4.14063C8.11733 4.14063 8.05075 4.16952 7.99286 4.22741L3.94609 8.27448C3.88812 8.33233 3.85937 8.39889 3.85937 8.47432C3.85937 8.54948 3.88818 8.6161 3.94609 8.67395L4.38006 9.10804C4.43795 9.16593 4.50459 9.19477 4.57991 9.19477C4.6551 9.19477 4.72168 9.16596 4.77957 9.10804L8.19252 5.69518Z" fill="#5068A5"/>
<path d="M8.19252 9.02852L11.6054 12.4414C11.6633 12.4993 11.7299 12.5281 11.8051 12.5281C11.8804 12.5281 11.947 12.4993 12.0049 12.4414L12.4391 12.0073C12.497 11.9494 12.526 11.8828 12.526 11.8077C12.526 11.7323 12.497 11.6657 12.4391 11.6078L8.39237 7.56075C8.33448 7.50287 8.26787 7.47397 8.19261 7.47397C8.11733 7.47397 8.05075 7.50287 7.99286 7.56075L3.94609 11.6078C3.88812 11.6657 3.85937 11.7322 3.85937 11.8077C3.85937 11.8828 3.88818 11.9494 3.94609 12.0073L4.38006 12.4414C4.43795 12.4993 4.50459 12.5281 4.57991 12.5281C4.6551 12.5281 4.72168 12.4993 4.77957 12.4414L8.19252 9.02852Z" fill="#5068A5"/>
</svg>
