<svg width="16" height="16" viewBox="0 0 16 16" fill="none" xmlns="http://www.w3.org/2000/svg">
<path d="M7.84848 0.5C3.70628 0.5 0.34848 3.85792 0.34848 8C0.34848 12.1423 3.70628 15.5 7.84848 15.5C11.9907 15.5 15.3485 12.1423 15.3485 8C15.3485 3.85792 11.9907 0.5 7.84848 0.5ZM7.84848 4.25C8.36627 4.25 8.78598 4.66977 8.78598 5.1875C8.78598 5.70547 8.36627 6.125 7.84848 6.125C7.33069 6.125 6.91098 5.70547 6.91098 5.1875C6.91098 4.66977 7.33069 4.25 7.84848 4.25ZM9.25473 11.75H6.44223C6.18336 11.75 5.97348 11.5404 5.97348 11.2812C5.97348 11.0224 6.18336 10.8125 6.44223 10.8125H6.91098V8H6.44223C6.18336 8 5.97348 7.79035 5.97348 7.53125C5.97348 7.27238 6.18336 7.0625 6.44223 7.0625H8.31723C8.5761 7.0625 8.78598 7.27238 8.78598 7.53125V10.8125H9.25473C9.5136 10.8125 9.72348 11.0224 9.72348 11.2812C9.72348 11.5404 9.5136 11.75 9.25473 11.75Z" fill="#5068A5"/>
<path d="M0.84848 8C0.84848 4.13406 3.98243 1 7.84848 1C11.7145 1 14.8485 4.13406 14.8485 8C14.8485 11.8662 11.7145 15 7.84848 15C3.98242 15 0.84848 11.8662 0.84848 8ZM9.28598 5.1875C9.28598 4.39364 8.64244 3.75 7.84848 3.75C7.05452 3.75 6.41098 4.39364 6.41098 5.1875C6.41098 5.83527 6.83918 6.38269 7.42785 6.5625H6.44223C5.90722 6.5625 5.47348 6.99624 5.47348 7.53125C5.47348 8.05619 5.89058 8.48302 6.41098 8.49951V10.313C5.89043 10.3295 5.47348 10.7567 5.47348 11.2812C5.47348 11.8167 5.90738 12.25 6.44223 12.25H9.25473C9.78958 12.25 10.2235 11.8167 10.2235 11.2812C10.2235 10.7567 9.80653 10.3295 9.28598 10.313V7.53125C9.28598 6.99624 8.85224 6.5625 8.31723 6.5625H8.26911C8.85778 6.38269 9.28598 5.83527 9.28598 5.1875Z" stroke="#423FF6" stroke-opacity="0.05"/>
</svg>
